<svg width="12" height="12" viewBox="0 0 12 12" fill="none" xmlns="http://www.w3.org/2000/svg">
<path d="M3.5 2.875C3.33424 2.875 3.17527 2.94085 3.05806 3.05806C2.94085 3.17527 2.875 3.33424 2.875 3.5V8.5C2.875 8.66576 2.94085 8.82473 3.05806 8.94194C3.17527 9.05915 3.33424 9.125 3.5 9.125H8.5C8.66576 9.125 8.82473 9.05915 8.94194 8.94194C9.05915 8.82473 9.125 8.66576 9.125 8.5V8.1875C9.125 7.93886 9.22377 7.7004 9.39959 7.52459C9.5754 7.34877 9.81386 7.25 10.0625 7.25C10.3111 7.25 10.5496 7.34877 10.7254 7.52459C10.9012 7.7004 11 7.93886 11 8.1875V8.5C11 9.16304 10.7366 9.79893 10.2678 10.2678C9.79893 10.7366 9.16304 11 8.5 11H3.5C2.83696 11 2.20107 10.7366 1.73223 10.2678C1.26339 9.79893 1 9.16304 1 8.5V3.5C1 2.83696 1.26339 2.20107 1.73223 1.73223C2.20107 1.26339 2.83696 1 3.5 1H3.8125C4.06114 1 4.2996 1.09877 4.47541 1.27459C4.65123 1.4504 4.75 1.68886 4.75 1.9375C4.75 2.18614 4.65123 2.4246 4.47541 2.60041C4.2996 2.77623 4.06114 2.875 3.8125 2.875H3.5ZM6.9375 2.875C6.68886 2.875 6.4504 2.77623 6.27459 2.60041C6.09877 2.4246 6 2.18614 6 1.9375C6 1.68886 6.09877 1.4504 6.27459 1.27459C6.4504 1.09877 6.68886 1 6.9375 1H10.0625C10.3111 1 10.5496 1.09877 10.7254 1.27459C10.9012 1.4504 11 1.68886 11 1.9375V5.0625C11 5.31114 10.9012 5.5496 10.7254 5.72541C10.5496 5.90123 10.3111 6 10.0625 6C9.81386 6 9.5754 5.90123 9.39959 5.72541C9.22377 5.5496 9.125 5.31114 9.125 5.0625V4.2L7.6 5.725C7.42228 5.8906 7.18722 5.98075 6.94435 5.97647C6.70147 5.97218 6.46974 5.87379 6.29797 5.70203C6.12621 5.53026 6.02782 5.29853 6.02353 5.05565C6.01925 4.81278 6.1094 4.57772 6.275 4.4L7.8 2.875H6.9375Z" fill="url(#paint0_linear_4068_2612)"/>
<defs>
<linearGradient id="paint0_linear_4068_2612" x1="6" y1="1" x2="6" y2="11" gradientUnits="userSpaceOnUse">
<stop stop-color="#12AAFF" stop-opacity="0.83"/>
<stop offset="1" stop-color="#1577CA"/>
</linearGradient>
</defs>
</svg>
