<svg width="12" height="12" viewBox="0 0 12 12" fill="none" xmlns="http://www.w3.org/2000/svg">
<g clip-path="url(#clip0_4068_2616)">
<path d="M2.4375 11.25H7.6875C8.13505 11.25 8.56427 11.0722 8.88074 10.7557C9.19721 10.4393 9.375 10.0101 9.375 9.5625V4.3125C9.375 3.86495 9.19721 3.43573 8.88074 3.11926C8.56427 2.80279 8.13505 2.625 7.6875 2.625H2.4375C1.98995 2.625 1.56073 2.80279 1.24426 3.11926C0.92779 3.43573 0.75 3.86495 0.75 4.3125V9.5625C0.75 10.0101 0.92779 10.4393 1.24426 10.7557C1.56073 11.0722 1.98995 11.25 2.4375 11.25Z" fill="url(#paint0_linear_4068_2616)"/>
<path d="M8.25 1.875H2.72156C2.83824 1.54623 3.05378 1.26161 3.33862 1.06019C3.62346 0.858773 3.96364 0.750421 4.3125 0.75H9.5625C10.0101 0.75 10.4393 0.92779 10.7557 1.24426C11.0722 1.56072 11.25 1.98995 11.25 2.4375V7.6875C11.2496 8.03636 11.1412 8.37654 10.9398 8.66138C10.7384 8.94622 10.4538 9.16176 10.125 9.27844V3.75C10.125 3.25272 9.92746 2.77581 9.57583 2.42417C9.22419 2.07254 8.74728 1.875 8.25 1.875Z" fill="url(#paint1_linear_4068_2616)"/>
</g>
<defs>
<linearGradient id="paint0_linear_4068_2616" x1="5.0625" y1="2.625" x2="5.0625" y2="11.25" gradientUnits="userSpaceOnUse">
<stop stop-color="#12AAFF" stop-opacity="0.83"/>
<stop offset="1" stop-color="#1577CA"/>
</linearGradient>
<linearGradient id="paint1_linear_4068_2616" x1="6.98578" y1="0.75" x2="6.98578" y2="9.27844" gradientUnits="userSpaceOnUse">
<stop stop-color="#12AAFF" stop-opacity="0.83"/>
<stop offset="1" stop-color="#1577CA"/>
</linearGradient>
<clipPath id="clip0_4068_2616">
<rect width="12" height="12" fill="white"/>
</clipPath>
</defs>
</svg>
