<svg width="24" height="24" viewBox="0 0 24 24" fill="none" xmlns="http://www.w3.org/2000/svg">
<path d="M7.14286 7.22727V11.3636H13.305L11.1884 9.26801C11.073 9.1477 11.0095 8.98749 11.0117 8.82156C11.0138 8.65562 11.0814 8.49707 11.1999 8.37973C11.3185 8.26238 11.4786 8.19552 11.6463 8.19339C11.8139 8.19127 11.9757 8.25405 12.0973 8.36835L15.3116 11.5502C15.432 11.6695 15.4997 11.8313 15.4997 12C15.4997 12.1687 15.432 12.3305 15.3116 12.4498L12.0973 15.6316C11.9757 15.746 11.8139 15.8087 11.6463 15.8066C11.4786 15.8045 11.3185 15.7376 11.1999 15.6203C11.0814 15.5029 11.0138 15.3444 11.0117 15.1784C11.0095 15.0125 11.073 14.8523 11.1884 14.732L13.305 12.6364H7.14286V16.7727C7.1435 17.3632 7.38075 17.9294 7.80257 18.3469C8.22439 18.7645 8.79632 18.9994 9.39286 19H17.75C18.3465 18.9994 18.9185 18.7645 19.3403 18.3469C19.7621 17.9294 19.9994 17.3632 20 16.7727V7.22727C19.9994 6.63676 19.7621 6.07061 19.3403 5.65305C18.9185 5.23549 18.3465 5.00063 17.75 5H9.39286C8.79632 5.00063 8.22439 5.23549 7.80257 5.65305C7.38075 6.07061 7.1435 6.63676 7.14286 7.22727ZM2.64286 11.3636C2.47236 11.3636 2.30885 11.4307 2.18829 11.55C2.06773 11.6694 2 11.8312 2 12C2 12.1688 2.06773 12.3306 2.18829 12.45C2.30885 12.5693 2.47236 12.6364 2.64286 12.6364H7.14286V11.3636H2.64286Z" fill="white"/>
</svg>
