<svg width="24" height="24" viewBox="0 0 24 24" fill="none" xmlns="http://www.w3.org/2000/svg">
<path d="M9.4879 12C9.4879 11.8312 9.55728 11.6694 9.68078 11.55C9.80428 11.4307 9.97179 11.3636 10.1464 11.3636H16.0734V7.22727C16.0734 5.95455 14.6826 5 13.4392 5H6.30492C5.69382 5.00063 5.10793 5.23549 4.67582 5.65305C4.2437 6.07061 4.00065 6.63676 4 7.22727V16.7727C4.00065 17.3632 4.2437 17.9294 4.67582 18.3469C5.10793 18.7645 5.69382 18.9994 6.30492 19H13.7685C14.3796 18.9994 14.9654 18.7645 15.3976 18.3469C15.8297 17.9294 16.0727 17.3632 16.0734 16.7727V12.6364H10.1464C9.97179 12.6364 9.80428 12.5693 9.68078 12.45C9.55728 12.3306 9.4879 12.1688 9.4879 12ZM21.8073 11.5502L18.5145 8.36835C18.39 8.25405 18.2242 8.19127 18.0525 8.19339C17.8808 8.19552 17.7167 8.26238 17.5953 8.37973C17.4738 8.49707 17.4046 8.65562 17.4024 8.82156C17.4002 8.98749 17.4652 9.1477 17.5835 9.26801L19.7518 11.3636H16.0734V12.6364H19.7518L17.5835 14.732C17.5198 14.7905 17.4688 14.8607 17.4336 14.9386C17.3984 15.0164 17.3797 15.1003 17.3786 15.1852C17.3775 15.2701 17.394 15.3544 17.4271 15.4331C17.4602 15.5118 17.5093 15.5833 17.5714 15.6433C17.6336 15.7034 17.7076 15.7508 17.789 15.7828C17.8704 15.8148 17.9576 15.8307 18.0455 15.8296C18.1334 15.8286 18.2202 15.8105 18.3007 15.7765C18.3813 15.7425 18.454 15.6932 18.5145 15.6316L21.8073 12.4498C21.9307 12.3305 22 12.1687 22 12C22 11.8313 21.9307 11.6695 21.8073 11.5502Z" fill="white"/>
</svg>
