<svg width="24" height="24" viewBox="0 0 24 24" fill="none" xmlns="http://www.w3.org/2000/svg">
<path d="M13.0993 20.9397H9.93293C9.70868 20.9397 9.52031 20.7782 9.48443 20.563L9.15255 18.186C8.58745 17.9617 8.10308 17.6567 7.63664 17.2979L5.40315 18.2039C5.20581 18.2757 4.96363 18.2039 4.85599 18.0066L3.06202 14.903C3.00712 14.8106 2.98776 14.7013 3.00758 14.5957C3.02739 14.49 3.085 14.3952 3.16966 14.3289L5.0623 12.8399C5.02642 12.5529 4.99951 12.2659 4.99951 11.9699C4.99951 11.6738 5.02642 11.3778 5.0623 11.0729L3.16966 9.61078C3.085 9.54452 3.02739 9.4497 3.00758 9.34404C2.98776 9.23839 3.00712 9.12913 3.06202 9.03671L4.85599 5.93314C4.96363 5.73581 5.20581 5.65508 5.40315 5.73581L7.63664 6.63279C8.10308 6.28297 8.58745 5.97799 9.15255 5.75374L9.48443 3.37673C9.52031 3.16146 9.70868 3 9.93293 3H13.5209C13.7451 3 13.9335 3.16146 13.9694 3.37673L14.3012 5.75374C14.8663 5.97799 15.3507 6.28297 15.8171 6.63279L18.0506 5.73581C18.248 5.65508 18.4902 5.73581 18.5978 5.93314L20.3918 9.03671C20.4994 9.23405 20.4546 9.47623 20.2841 9.61078L18.3915 11.0729C18.4274 11.3778 18.4543 11.6738 18.4543 11.9699V12.1403C18.0058 12.0326 17.5573 11.9699 17.1088 11.9699C16.2836 11.9699 15.5122 12.1582 14.8125 12.4901C14.8394 12.3197 14.8663 12.1492 14.8663 11.9699C14.8663 10.2387 13.4581 8.8304 11.7269 8.8304C9.99571 8.8304 8.58745 10.2387 8.58745 11.9699C8.58745 13.701 9.99571 15.1093 11.7269 15.1093C11.9063 15.1093 12.0767 15.0824 12.2471 15.0555C11.7919 16.0107 11.6299 17.0795 11.7816 18.1267C11.9332 19.174 12.3918 20.1528 13.0993 20.9397Z" fill="white"/>
<path d="M18.6944 20.5C18.4362 20.4998 18.2153 20.4092 18.0316 20.2275C17.8479 20.0458 17.7559 19.8271 17.7556 19.5714C17.7533 17.7583 17.7556 16.7417 17.7556 14.9286C17.7556 14.6732 17.8476 14.4547 18.0316 14.273C18.2156 14.0913 18.4366 14.0003 18.6944 14C18.9523 13.9997 19.1734 14.0907 19.3578 14.273C19.5421 14.4553 19.634 14.6738 19.6333 14.9286C19.6289 16.7417 19.6333 17.7583 19.6333 19.5714C19.6333 19.8268 19.5415 20.0455 19.3578 20.2275C19.1741 20.4095 18.9529 20.5002 18.6944 20.5ZM14.9389 20.5C14.6807 20.4998 14.4597 20.4092 14.276 20.2275C14.0923 20.0458 14.0003 19.8271 14 19.5714C13.9978 17.7583 14 16.7417 14 14.9286C14 14.6732 14.092 14.4547 14.276 14.273C14.4601 14.0913 14.681 14.0003 14.9389 14C15.1968 13.9997 15.4179 14.0907 15.6022 14.273C15.7865 14.4553 15.8784 14.6738 15.8778 14.9286C15.8733 16.7417 15.8778 17.7583 15.8778 19.5714C15.8778 19.8268 15.7859 20.0455 15.6022 20.2275C15.4185 20.4095 15.1974 20.5002 14.9389 20.5Z" fill="white"/>
</svg>
