<svg width="24" height="24" viewBox="0 0 24 24" fill="none" xmlns="http://www.w3.org/2000/svg">
<g clip-path="url(#clip0_4102_785)">
<rect x="5" y="10" width="14" height="2" fill="white"/>
<rect x="15" y="13" width="4" height="3" fill="white"/>
<rect x="5" y="13" width="3.5" height="3" fill="white"/>
<rect x="5" y="16" width="14" height="3" fill="white"/>
<path fill-rule="evenodd" clip-rule="evenodd" d="M20.8799 8.78516C20.9116 8.78527 20.9424 8.7979 20.9648 8.82031C20.9874 8.84292 21 8.87428 21 8.90625V18.4287C20.9999 19.1106 20.7292 19.7649 20.2471 20.2471C19.7649 20.7292 19.1106 21 18.4287 21H5.57129C4.88941 21 4.23512 20.7292 3.75293 20.2471C3.27078 19.7649 3.0001 19.1106 3 18.4287V8.90625C3 8.87428 3.01255 8.84292 3.03516 8.82031C3.05765 8.7979 3.08837 8.78527 3.12012 8.78516H20.8799ZM7.17871 16.5C6.92304 16.5 6.67789 16.6015 6.49707 16.7822C6.31628 16.963 6.21392 17.2082 6.21387 17.4639C6.21387 17.6546 6.271 17.8414 6.37695 18C6.48287 18.1584 6.63351 18.2815 6.80957 18.3545C6.9856 18.4274 7.17932 18.4472 7.36621 18.4102C7.55326 18.3729 7.72549 18.2804 7.86035 18.1455C7.99507 18.0107 8.0868 17.8392 8.12402 17.6523C8.16123 17.4653 8.14232 17.2709 8.06934 17.0947C7.99634 16.9187 7.87235 16.768 7.71387 16.6621C7.55541 16.5563 7.36923 16.5 7.17871 16.5ZM10.3926 16.5C10.1369 16.5001 9.89171 16.6015 9.71094 16.7822C9.53017 16.963 9.42876 17.2082 9.42871 17.4639C9.42871 17.6546 9.48486 17.8414 9.59082 18C9.69668 18.1584 9.84746 18.2815 10.0234 18.3545C10.1996 18.4275 10.394 18.4474 10.5811 18.4102C10.7681 18.3729 10.9403 18.2804 11.0752 18.1455C11.2098 18.0107 11.3017 17.8392 11.3389 17.6523C11.3761 17.4653 11.3572 17.2709 11.2842 17.0947C11.2112 16.9186 11.0872 16.768 10.9287 16.6621C10.7701 16.5562 10.5833 16.5 10.3926 16.5ZM13.6074 16.5C13.3517 16.5 13.1056 16.6014 12.9248 16.7822C12.7442 16.963 12.6426 17.2083 12.6426 17.4639C12.6426 17.6546 12.6997 17.8414 12.8057 18C12.9116 18.1584 13.0622 18.2815 13.2383 18.3545C13.4144 18.4274 13.608 18.4473 13.7949 18.4102C13.982 18.3729 14.1542 18.2804 14.2891 18.1455C14.4237 18.0107 14.5155 17.8392 14.5527 17.6523C14.5899 17.4653 14.571 17.2709 14.498 17.0947C14.425 16.9186 14.3011 16.768 14.1426 16.6621C13.9841 16.5563 13.7979 16.5001 13.6074 16.5ZM10.25 13C9.55964 13 9 13.5596 9 14.25C9.00012 14.9403 9.55972 15.5 10.25 15.5H13.75C14.4403 15.5 14.9999 14.9403 15 14.25C15 13.5596 14.4404 13 13.75 13H10.25ZM7.17871 13.2852C6.92297 13.2852 6.67791 13.3875 6.49707 13.5684C6.31626 13.7492 6.21387 13.9943 6.21387 14.25C6.21391 14.4406 6.27111 14.6267 6.37695 14.7852C6.48291 14.9437 6.63337 15.0676 6.80957 15.1406C6.98564 15.2136 7.17929 15.2324 7.36621 15.1953C7.55324 15.1581 7.7255 15.0665 7.86035 14.9316C7.99521 14.7968 8.08682 14.6246 8.12402 14.4375C8.16114 14.2506 8.14226 14.0569 8.06934 13.8809C7.99635 13.7047 7.87244 13.5542 7.71387 13.4482C7.55537 13.3424 7.36931 13.2852 7.17871 13.2852ZM16.8213 13.2852C16.5656 13.2852 16.3205 13.3876 16.1396 13.5684C15.9589 13.7492 15.8574 13.9943 15.8574 14.25C15.8575 14.4405 15.9137 14.6267 16.0195 14.7852C16.1254 14.9437 16.276 15.0676 16.4521 15.1406C16.6283 15.2136 16.8227 15.2325 17.0098 15.1953C17.1966 15.1581 17.3682 15.0663 17.5029 14.9316C17.6378 14.7968 17.7304 14.6246 17.7676 14.4375C17.8047 14.2506 17.7848 14.0569 17.7119 13.8809C17.639 13.7048 17.5158 13.5542 17.3574 13.4482C17.1988 13.3423 17.012 13.2852 16.8213 13.2852ZM13.6074 10.0713C13.3517 10.0713 13.1056 10.1727 12.9248 10.3535C12.7442 10.5343 12.6427 10.7796 12.6426 11.0352C12.6426 11.2259 12.6997 11.4127 12.8057 11.5713C12.9116 11.7298 13.0622 11.8538 13.2383 11.9268C13.4143 11.9996 13.6081 12.0185 13.7949 11.9814C13.9819 11.9443 14.1542 11.8525 14.2891 11.7178C14.4239 11.5829 14.5155 11.4107 14.5527 11.2236C14.5899 11.0366 14.571 10.8422 14.498 10.666C14.425 10.49 14.301 10.3393 14.1426 10.2334C13.9842 10.1276 13.7979 10.0713 13.6074 10.0713ZM16.8213 10.0713C16.5656 10.0713 16.3204 10.1728 16.1396 10.3535C15.9589 10.5343 15.8575 10.7795 15.8574 11.0352C15.8574 11.2259 15.9136 11.4127 16.0195 11.5713C16.1255 11.7298 16.276 11.8538 16.4521 11.9268C16.6283 11.9997 16.8227 12.0187 17.0098 11.9814C17.1966 11.9443 17.3682 11.8524 17.5029 11.7178C17.6378 11.5829 17.7304 11.4107 17.7676 11.2236C17.8048 11.0366 17.7849 10.8422 17.7119 10.666C17.6389 10.4901 17.5158 10.3393 17.3574 10.2334C17.1988 10.1274 17.012 10.0713 16.8213 10.0713ZM17.1738 3.00098C17.5197 3.01828 17.7861 3.31521 17.7861 3.66113V4.28516H18.4287C19.1106 4.28519 19.7649 4.55686 20.2471 5.03906C20.729 5.52116 20.9999 6.17478 21 6.85645V7.33887C21 7.38149 20.9833 7.42299 20.9531 7.45312C20.923 7.48318 20.8814 7.5 20.8389 7.5H3.16113C3.11857 7.5 3.077 7.48318 3.04688 7.45312C3.01674 7.42299 3 7.38149 3 7.33887V6.85645C3.00012 6.17478 3.27101 5.52116 3.75293 5.03906C4.23513 4.55686 4.88935 4.28519 5.57129 4.28516H6.21387V3.64258C6.21388 3.55557 6.23234 3.46963 6.2666 3.38965C6.30087 3.30966 6.35106 3.23679 6.41406 3.17676C6.47697 3.11693 6.55146 3.07034 6.63281 3.04004C6.71421 3.00974 6.80094 2.99685 6.8877 3.00098C7.23363 3.01825 7.5 3.31519 7.5 3.66113V4.28516H16.5V3.64258C16.5 3.55564 16.5176 3.46957 16.5518 3.38965C16.586 3.30966 16.6362 3.23679 16.6992 3.17676C16.7622 3.1168 16.8375 3.07039 16.9189 3.04004C17.0004 3.00979 17.0871 2.9968 17.1738 3.00098Z" fill="white"/>
</g>
<defs>
<clipPath id="clip0_4102_785">
<rect width="24" height="24" fill="white"/>
</clipPath>
</defs>
</svg>
