<svg width="24" height="24" viewBox="0 0 24 24" fill="none" xmlns="http://www.w3.org/2000/svg">
<path d="M16.5 9L20.25 5.25M20.25 5.25V8.0625M20.25 5.25H17.4375" stroke="#8AA3B9" stroke-width="1.5" stroke-linecap="round" stroke-linejoin="round"/>
<path d="M13.1556 5.31922L13.6829 6.26415C14.1582 7.11728 13.9673 8.23528 13.2182 8.98522C13.2182 8.98522 12.3082 9.8944 13.9575 11.543C15.6045 13.1899 16.5145 12.2823 16.5145 12.2823C17.2644 11.5324 18.3832 11.3415 19.2355 11.8168L20.1805 12.3449C21.4683 13.0632 21.6202 14.8685 20.4884 16.0012C19.8083 16.6804 18.9747 17.2102 18.0542 17.2443C16.5039 17.3036 13.8706 16.9112 11.2292 14.2705C8.58854 11.6291 8.1961 8.99578 8.25541 7.44553C8.29035 6.52497 8.81929 5.69134 9.49854 5.01128C10.6312 3.87947 12.4365 4.03141 13.1548 5.32003" fill="#8AA3B9"/>
<path d="M6.91667 13H2.75C2.19772 13 1.75 12.5523 1.75 12C1.75 11.4477 2.19771 11 2.75 11H6.91667C7.46895 11 7.91667 11.4477 7.91667 12C7.91667 12.5523 7.46895 13 6.91667 13Z" fill="#8AA3B9"/>
<path d="M11.5 21H2.75C2.19772 21 1.75 20.5523 1.75 20C1.75 19.4477 2.19772 19 2.75 19H11.5C12.0523 19 12.5 19.4477 12.5 20C12.5 20.5523 12.0523 21 11.5 21Z" fill="#8AA3B9"/>
<path d="M2.75 15H8.63754C9.28186 15 9.81701 15.4675 10.0317 16.075C10.1785 16.4905 9.90085 17 9.46021 17H2.75C2.19772 17 1.75 16.5523 1.75 16C1.75 15.4477 2.19772 15 2.75 15Z" fill="#8AA3B9"/>
</svg>
