<svg width="24" height="24" viewBox="0 0 24 24" fill="none" xmlns="http://www.w3.org/2000/svg">
<path d="M19.5 8C19.0833 8 18.7293 7.85433 18.438 7.563C18.1467 7.27167 18.0007 6.91733 18 6.5V5.5C18 5.08333 18.146 4.72933 18.438 4.438C18.73 4.14667 19.084 4.00067 19.5 4H20.5C20.9167 4 21.271 4.146 21.563 4.438C21.855 4.73 22.0007 5.084 22 5.5V6.5C22 6.91667 21.8543 7.271 21.563 7.563C21.2717 7.855 20.9173 8.00067 20.5 8H19.5ZM19.5 14C19.0833 14 18.7293 13.8543 18.438 13.563C18.1467 13.2717 18.0007 12.9173 18 12.5V11.5C18 11.0833 18.146 10.7293 18.438 10.438C18.73 10.1467 19.084 10.0007 19.5 10H20.5C20.9167 10 21.271 10.146 21.563 10.438C21.855 10.73 22.0007 11.084 22 11.5V12.5C22 12.9167 21.8543 13.271 21.563 13.563C21.2717 13.855 20.9173 14.0007 20.5 14H19.5ZM4 20C3.45 20 2.97933 19.8043 2.588 19.413C2.19667 19.0217 2.00067 18.5507 2 18V6C2 5.45 2.196 4.97933 2.588 4.588C2.98 4.19667 3.45067 4.00067 4 4H14C14.55 4 15.021 4.196 15.413 4.588C15.805 4.98 16.0007 5.45067 16 6V18C16 18.55 15.8043 19.021 15.413 19.413C15.0217 19.805 14.5507 20.0007 14 20H4ZM19.5 20C19.0833 20 18.7293 19.8543 18.438 19.563C18.1467 19.2717 18.0007 18.9173 18 18.5V17.5C18 17.0833 18.146 16.7293 18.438 16.438C18.73 16.1467 19.084 16.0007 19.5 16H20.5C20.9167 16 21.271 16.146 21.563 16.438C21.855 16.73 22.0007 17.084 22 17.5V18.5C22 18.9167 21.8543 19.271 21.563 19.563C21.2717 19.855 20.9173 20.0007 20.5 20H19.5Z" fill="#8AA3B9"/>
</svg>
