<svg width="24" height="24" viewBox="0 0 24 24" fill="none" xmlns="http://www.w3.org/2000/svg">
<path d="M16.2565 9.86664C15.3487 9.86664 14.577 9.55553 13.9414 8.93331C13.3059 8.31109 12.9882 7.55553 12.9882 6.66664C12.9882 5.77776 13.3059 5.0222 13.9414 4.39998C14.577 3.77776 15.3487 3.46664 16.2565 3.46664C17.1644 3.46664 17.9361 3.77776 18.5716 4.39998C19.2072 5.0222 19.5249 5.77776 19.5249 6.66664C19.5249 7.55553 19.2072 8.31109 18.5716 8.93331C17.9361 9.55553 17.1644 9.86664 16.2565 9.86664ZM11.3541 16.2666C11.3541 16.2666 9.35591 14.3318 9.99232 13.1733C10.199 12.797 10.4216 12.6493 10.7548 12.3733C11.5971 11.6754 12.4391 11.5335 13.3564 11.2938C14.2737 11.0542 15.2404 10.934 16.2565 10.9333C17.2727 10.9326 18.2397 11.0528 19.1578 11.2938C20.0758 11.5349 20.9427 11.8947 21.7583 12.3733C22.0852 12.5689 22.3094 12.7995 22.5209 13.1733C23.1454 14.2771 21.5682 16.2666 21.5682 16.2666H11.3541Z" fill="#8AA3B9"/>
<path d="M6.55892 12.9482H2.6083C2.08466 12.9482 1.66016 12.5237 1.66016 12C1.66016 11.4764 2.08466 11.0519 2.60831 11.0519H6.55892C7.08257 11.0519 7.50707 11.4764 7.50707 12C7.50707 12.5237 7.08257 12.9482 6.55892 12.9482Z" fill="#8AA3B9"/>
<path d="M10.9046 20.5334H2.6083C2.08466 20.5334 1.66016 20.1089 1.66016 19.5852C1.66016 19.0616 2.08466 18.6371 2.6083 18.6371H10.9046C11.4282 18.6371 11.8527 19.0616 11.8527 19.5852C11.8527 20.1089 11.4282 20.5334 10.9046 20.5334Z" fill="#8AA3B9"/>
<path d="M2.6083 14.8445H8.19057C8.80148 14.8445 9.30888 15.2877 9.5124 15.8637C9.65159 16.2576 9.38837 16.7408 8.97058 16.7408H2.6083C2.08466 16.7408 1.66016 16.3163 1.66016 15.7926C1.66016 15.269 2.08466 14.8445 2.6083 14.8445Z" fill="#8AA3B9"/>
</svg>
