<svg width="24" height="24" viewBox="0 0 24 24" fill="none" xmlns="http://www.w3.org/2000/svg">
<path fill-rule="evenodd" clip-rule="evenodd" d="M16.125 15C17.6168 15 19.0476 14.4074 20.1025 13.3525C21.1574 12.2976 21.75 10.8668 21.75 9.375C21.75 7.88316 21.1574 6.45242 20.1025 5.39752C19.0476 4.34263 17.6168 3.75 16.125 3.75C14.6332 3.75 13.2024 4.34263 12.1475 5.39752C11.0926 6.45242 10.5 7.88316 10.5 9.375C10.5 10.8668 11.0926 12.2976 12.1475 13.3525C13.2024 14.4074 14.6332 15 16.125 15ZM16.9688 7.125C16.9688 6.90122 16.8799 6.68661 16.7216 6.52838C16.5634 6.37015 16.3488 6.28125 16.125 6.28125C15.9012 6.28125 15.6866 6.37015 15.5284 6.52838C15.3701 6.68661 15.2812 6.90122 15.2812 7.125V9.20175C15.2812 9.40425 15.3544 9.60112 15.4871 9.75412L16.6121 11.0524C16.6847 11.1361 16.773 11.2048 16.8721 11.2544C16.9711 11.3041 17.079 11.3337 17.1895 11.3416C17.3001 11.3496 17.4111 11.3357 17.5162 11.3007C17.6214 11.2657 17.7186 11.2104 17.8024 11.1379C17.8861 11.0653 17.9548 10.977 18.0044 10.8779C18.0541 10.7789 18.0837 10.671 18.0916 10.5605C18.0996 10.4499 18.0857 10.3389 18.0507 10.2338C18.0157 10.1286 17.9604 10.0314 17.8879 9.94763L16.9688 8.88675V7.125Z" fill="#8AA3B9"/>
<path d="M7.775 10.2H3.975C3.43652 10.2 3 9.76348 3 9.225C3 8.68652 3.43652 8.25 3.975 8.25H7.775C8.31348 8.25 8.75 8.68652 8.75 9.225C8.75 9.76348 8.31348 10.2 7.775 10.2Z" fill="#8AA3B9"/>
<path d="M11.775 18H3.975C3.43652 18 3 17.5635 3 17.025C3 16.4865 3.43652 16.05 3.975 16.05H11.775C12.3135 16.05 12.75 16.4865 12.75 17.025C12.75 17.5635 12.3135 18 11.775 18Z" fill="#8AA3B9"/>
<path d="M3.975 12.15H8.4966C9.12481 12.15 9.64659 12.6058 9.85588 13.1981C9.999 13.6032 9.72833 14.1 9.29871 14.1H3.975C3.43652 14.1 3 13.6635 3 13.125C3 12.5865 3.43652 12.15 3.975 12.15Z" fill="#8AA3B9"/>
</svg>
