<svg width="20" height="19" viewBox="0 0 20 19" fill="none" xmlns="http://www.w3.org/2000/svg">
<path d="M13.952 12.1891L13.4464 12.6954C13.4464 12.6954 12.2431 13.898 8.95978 10.6144C5.67647 7.33068 6.87979 6.12809 6.87979 6.12809L7.19757 5.80844C7.98312 5.02384 8.05756 3.76313 7.37201 2.84218L5.97202 0.961161C5.12314 -0.178848 3.48426 -0.329731 2.51205 0.642629L0.767613 2.38617C0.286505 2.869 -0.0357153 3.49265 0.00317331 4.1856C0.103173 5.95932 0.900945 9.77388 5.3498 14.2244C10.0687 18.9431 14.4964 19.1309 16.3064 18.961C16.8797 18.9074 17.3775 18.6145 17.7786 18.2122L19.3564 16.6341C20.423 15.5689 20.123 13.7416 18.7586 12.9961L16.6364 11.8348C15.7408 11.3464 14.652 11.4895 13.952 12.1891Z" fill="#00A6F4"/>
</svg>
