<svg width="20" height="20" viewBox="0 0 20 20" fill="none" xmlns="http://www.w3.org/2000/svg">
<g clip-path="url(#clip0_4068_2598)">
<path d="M0.754994 12.716L1.27199 14.648C1.87599 16.903 2.17899 18.031 2.86399 18.762C3.40464 19.3388 4.10408 19.7424 4.87399 19.922C5.84999 20.15 6.97799 19.848 9.23399 19.244C11.488 18.64 12.616 18.338 13.347 17.653C13.4077 17.5956 13.4663 17.537 13.523 17.477C13.1824 17.4463 12.8439 17.3962 12.509 17.327C11.813 17.189 10.986 16.967 10.008 16.705L9.90099 16.676L9.87599 16.67C8.81199 16.384 7.92299 16.146 7.21299 15.89C6.46599 15.62 5.78799 15.287 5.21099 14.747C4.41731 14.0034 3.86191 13.0412 3.61499 11.982C3.43499 11.213 3.48699 10.459 3.62699 9.67797C3.76099 8.92897 4.00099 8.03097 4.28899 6.95597L4.82399 4.96197L4.84199 4.89197C2.92199 5.40897 1.91099 5.71497 1.23699 6.34597C0.659486 6.88702 0.255445 7.58722 0.0759935 8.35797C-0.152007 9.33297 0.149994 10.461 0.754994 12.716Z" fill="#8AA3B9"/>
<path fill-rule="evenodd" clip-rule="evenodd" d="M18.83 8.71499L18.312 10.647C17.707 12.902 17.405 14.03 16.72 14.761C16.1795 15.3382 15.48 15.7422 14.71 15.922C14.6133 15.9447 14.515 15.962 14.415 15.974C13.5 16.087 12.383 15.788 10.351 15.244C8.09599 14.639 6.96799 14.337 6.23699 13.652C5.65966 13.1112 5.25563 12.4114 5.07599 11.641C4.84799 10.665 5.14999 9.53799 5.75499 7.28299L6.27199 5.35099L6.51599 4.44599C6.97099 2.77999 7.27699 1.86299 7.86399 1.23599C8.40464 0.659193 9.10408 0.255534 9.87399 0.0759934C10.85 -0.152007 11.978 0.149994 14.234 0.754994C16.488 1.35899 17.616 1.66099 18.347 2.34499C18.9245 2.88605 19.3285 3.58625 19.508 4.35699C19.736 5.33299 19.434 6.45999 18.83 8.71499ZM9.05099 7.80499C9.07652 7.70984 9.12054 7.62065 9.18054 7.54251C9.24054 7.46437 9.31535 7.39883 9.40069 7.34961C9.48604 7.30039 9.58024 7.26847 9.67792 7.25566C9.7756 7.24286 9.87485 7.24943 9.96999 7.27499L14.8 8.56999C14.8976 8.59315 14.9897 8.63567 15.0706 8.69503C15.1515 8.7544 15.2197 8.8294 15.2711 8.9156C15.3225 9.00179 15.3561 9.09743 15.3699 9.19684C15.3836 9.29625 15.3773 9.39742 15.3513 9.49434C15.3252 9.59127 15.28 9.68198 15.2183 9.76111C15.1565 9.84024 15.0795 9.90617 14.9919 9.955C14.9042 10.0038 14.8076 10.0346 14.7078 10.0454C14.608 10.0562 14.5071 10.0469 14.411 10.018L9.58099 8.72399C9.38904 8.67243 9.22541 8.54679 9.12603 8.37467C9.02666 8.20254 8.99967 7.99701 9.05099 7.80499ZM8.27499 10.704C8.32655 10.512 8.4522 10.3484 8.62432 10.249C8.79645 10.1497 9.00098 10.1227 9.19299 10.174L12.091 10.951C12.1891 10.9736 12.2817 11.0158 12.3631 11.075C12.4446 11.1342 12.5133 11.2092 12.5652 11.2955C12.6171 11.3818 12.651 11.4777 12.665 11.5774C12.679 11.6771 12.6728 11.7786 12.6468 11.8759C12.6207 11.9732 12.5753 12.0642 12.5133 12.1435C12.4513 12.2229 12.374 12.2889 12.2859 12.3378C12.1978 12.3866 12.1008 12.4172 12.0007 12.4277C11.9005 12.4382 11.7993 12.4284 11.703 12.399L8.80499 11.623C8.70984 11.5975 8.62065 11.5534 8.54251 11.4934C8.46437 11.4334 8.39883 11.3586 8.34961 11.2733C8.30039 11.1879 8.26847 11.0937 8.25566 10.9961C8.24286 10.8984 8.24943 10.7991 8.27499 10.704Z" fill="#8AA3B9"/>
</g>
<defs>
<clipPath id="clip0_4068_2598">
<rect width="20" height="20" fill="white"/>
</clipPath>
</defs>
</svg>
