<svg width="18" height="18" viewBox="0 0 18 18" fill="none" xmlns="http://www.w3.org/2000/svg">
<path d="M3 9C3 7.4087 3.63214 5.88258 4.75736 4.75736C5.88258 3.63214 7.4087 3 9 3C10.5913 3 12.1174 3.63214 13.2426 4.75736C14.3679 5.88258 15 7.4087 15 9V12.8175C15 13.4535 15 13.77 14.9055 14.0242C14.8304 14.2257 14.7128 14.4087 14.5607 14.5607C14.4087 14.7128 14.2257 14.8304 14.0242 14.9055C13.77 15 13.4528 15 12.8175 15H9C7.4087 15 5.88258 14.3679 4.75736 13.2426C3.63214 12.1174 3 10.5913 3 9Z" stroke="#72CA49" stroke-width="1.5"/>
<path d="M6.75 8.25H11.25M9 11.25H11.25" stroke="#72CA49" stroke-width="1.5" stroke-linecap="round" stroke-linejoin="round"/>
</svg>
