<svg width="18" height="18" viewBox="0 0 18 18" fill="none" xmlns="http://www.w3.org/2000/svg">
<path d="M4.51444 13.0079V8.5106C4.51444 8.24434 4.6202 7.98899 4.80848 7.80072C4.99675 7.61245 5.2521 7.50668 5.51836 7.50668C5.78461 7.50668 6.03996 7.61245 6.22823 7.80072C6.4165 7.98899 6.52227 8.24434 6.52227 8.5106V10.5578L12.2899 4.79019C12.3822 4.69601 12.4925 4.62134 12.6142 4.57061C12.736 4.51989 12.8667 4.49415 12.9985 4.49492C13.1303 4.49488 13.2608 4.52096 13.3824 4.57164C13.504 4.62232 13.6144 4.6966 13.7072 4.79019C13.8947 4.97836 14 5.23319 14 5.49884C14 5.76449 13.8947 6.01932 13.7072 6.20749L7.92645 11.9922H9.9999C10.2662 11.9922 10.5215 12.0979 10.7098 12.2862C10.8981 12.4745 11.0038 12.7298 11.0038 12.9961C11.0038 13.2623 10.8981 13.5177 10.7098 13.706C10.5215 13.8942 10.2662 14 9.9999 14H5.30314C5.17191 13.9843 5.04592 13.9344 4.94225 13.8517L4.79396 13.7179C4.61806 13.5325 4.51386 13.2906 4.5 13.0355L4.51444 13.0079Z" fill="#329D2C"/>
</svg>
