<svg width="18" height="18" viewBox="0 0 18 18" fill="none" xmlns="http://www.w3.org/2000/svg">
<path d="M2.60294 11.6176C2.29044 11.6176 2.02868 11.5121 1.81765 11.3011C1.60662 11.0901 1.50074 10.8279 1.5 10.5147V6.10294C1.5 5.79044 1.60588 5.52868 1.81765 5.31765C2.02941 5.10662 2.29118 5.00074 2.60294 5H7.0147C7.3272 5 7.58934 5.10588 7.8011 5.31765C8.01287 5.52941 8.11838 5.79118 8.11764 6.10294C8.11691 6.41471 8.01103 6.67684 7.8 6.88934C7.58897 7.10184 7.3272 7.20735 7.0147 7.20588H5.25L9.13787 11.0937L14.5974 5.63419C14.818 5.4136 15.0801 5.30331 15.3838 5.30331C15.6875 5.30331 15.9493 5.4136 16.1691 5.63419C16.389 5.85478 16.4993 6.11691 16.5 6.42059C16.5007 6.72426 16.3904 6.98603 16.1691 7.20588L10.7371 12.6379C10.3143 13.0607 9.79044 13.2721 9.16544 13.2721C8.54044 13.2721 8.01654 13.0607 7.59375 12.6379L3.70588 8.75V10.5147C3.70588 10.8272 3.6 11.0893 3.38823 11.3011C3.17647 11.5129 2.91471 11.6184 2.60294 11.6176Z" fill="#9B3F3F"/>
</svg>
