<svg width="18" height="18" viewBox="0 0 18 18" fill="none" xmlns="http://www.w3.org/2000/svg">
<path d="M13.4856 4.99211V9.4894C13.4856 9.75566 13.3798 10.011 13.1915 10.1993C13.0033 10.3876 12.7479 10.4933 12.4816 10.4933C12.2154 10.4933 11.96 10.3876 11.7718 10.1993C11.5835 10.011 11.4777 9.75566 11.4777 9.4894V7.4422L5.71011 13.2098C5.6178 13.304 5.5075 13.3787 5.38576 13.4294C5.26403 13.4801 5.13334 13.5058 5.00146 13.5051C4.86969 13.5051 4.73922 13.479 4.61759 13.4284C4.49596 13.3777 4.38557 13.3034 4.29281 13.2098C4.10529 13.0216 4 12.7668 4 12.5012C4 12.2355 4.10529 11.9807 4.29281 11.7925L10.0736 6.00784H8.0001C7.73384 6.00784 7.47849 5.90207 7.29022 5.7138C7.10195 5.52553 6.99618 5.27017 6.99618 5.00392C6.99618 4.73766 7.10195 4.48231 7.29022 4.29404C7.47849 4.10577 7.73384 4 8.0001 4H12.6969C12.8281 4.01575 12.9541 4.06562 13.0578 4.14829L13.206 4.28215C13.3819 4.4675 13.4861 4.70939 13.5 4.96455L13.4856 4.99211Z" fill="#329D2C"/>
</svg>
